<?xml version="1.0" encoding="UTF-8"?>
<svg xmlns="http://www.w3.org/2000/svg" width="800" height="300" viewBox="0 0 800 300">
<rect x="0" y="0" width="800" height="300" fill="#f6f8fa" rx="12"/>
<line x1="40" y1="150" x2="760" y2="150" stroke="#24292f" stroke-width="0.3" opacity="0.2"/>
<rect x="48" y="40" width="24" height="110" fill="#dea584" opacity="0.8" rx="1"/>
<rect x="48" y="150" width="24" height="66" fill="#dea584" opacity="0.4" rx="1"/>
<rect x="88" y="40" width="24" height="110" fill="#3178c6" opacity="0.8" rx="1"/>
<rect x="88" y="150" width="24" height="66" fill="#3178c6" opacity="0.4" rx="1"/>
<rect x="128" y="40" width="24" height="110" fill="#ff3e00" opacity="0.8" rx="1"/>
<rect x="128" y="150" width="24" height="66" fill="#ff3e00" opacity="0.4" rx="1"/>
<rect x="168" y="77.50389828209401" width="24" height="72.49610171790599" fill="#dea584" opacity="0.8" rx="1"/>
<rect x="168" y="150" width="24" height="43.49766103074359" fill="#dea584" opacity="0.4" rx="1"/>
<rect x="208" y="135.83200534267326" width="24" height="14.167994657326751" fill="#3178c6" opacity="0.8" rx="1"/>
<rect x="208" y="150" width="24" height="8.50079679439605" fill="#3178c6" opacity="0.4" rx="1"/>
<rect x="248" y="141.75564751045962" width="24" height="8.244352489540365" fill="#ff3e00" opacity="0.8" rx="1"/>
<rect x="248" y="150" width="24" height="4.946611493724219" fill="#ff3e00" opacity="0.4" rx="1"/>
<rect x="288" y="146.6719230220404" width="24" height="3.328076977959589" fill="#663399" opacity="0.8" rx="1"/>
<rect x="288" y="150" width="24" height="1.9968461867757534" fill="#663399" opacity="0.4" rx="1"/>
<rect x="328" y="146.9966782710625" width="24" height="3.0033217289374865" fill="#89e051" opacity="0.8" rx="1"/>
<rect x="328" y="150" width="24" height="1.8019930373624917" fill="#89e051" opacity="0.4" rx="1"/>
<rect x="368" y="147.57099559007028" width="24" height="2.4290044099297194" fill="#f1e05a" opacity="0.8" rx="1"/>
<rect x="368" y="150" width="24" height="1.4574026459578315" fill="#f1e05a" opacity="0.4" rx="1"/>
<rect x="408" y="148.8191401913279" width="24" height="1.1808598086721083" fill="#A97BFF" opacity="0.8" rx="1"/>
<rect x="408" y="150" width="24" height="0.7085158852032649" fill="#A97BFF" opacity="0.4" rx="1"/>
<rect x="448" y="148.92790557387792" width="24" height="1.0720944261220695" fill="#b07219" opacity="0.8" rx="1"/>
<rect x="448" y="150" width="24" height="0.6432566556732416" fill="#b07219" opacity="0.4" rx="1"/>
<rect x="488" y="149.24631673267015" width="24" height="0.7536832673298375" fill="#6e4a7e" opacity="0.8" rx="1"/>
<rect x="488" y="150" width="24" height="0.45220996039790246" fill="#6e4a7e" opacity="0.4" rx="1"/>
<rect x="528" y="149.37523078534963" width="24" height="0.6247692146503694" fill="#e34c26" opacity="0.8" rx="1"/>
<rect x="528" y="150" width="24" height="0.3748615287902216" fill="#e34c26" opacity="0.4" rx="1"/>
<rect x="568" y="149.60061979920124" width="24" height="0.39938020079875125" fill="#178600" opacity="0.8" rx="1"/>
<rect x="568" y="150" width="24" height="0.23962812047925075" fill="#178600" opacity="0.4" rx="1"/>
<rect x="608" y="149.66247969271242" width="24" height="0.33752030728757837" fill="#555555" opacity="0.8" rx="1"/>
<rect x="608" y="150" width="24" height="0.202512184372547" fill="#555555" opacity="0.4" rx="1"/>
<rect x="648" y="40" width="24" height="110" fill="#bc8cff" opacity="0.8" rx="1"/>
<rect x="648" y="150" width="24" height="66" fill="#bc8cff" opacity="0.4" rx="1"/>
<rect x="688" y="40" width="24" height="110" fill="#bc8cff" opacity="0.8" rx="1"/>
<rect x="688" y="150" width="24" height="66" fill="#bc8cff" opacity="0.4" rx="1"/>
<rect x="728" y="107.21000000000001" width="24" height="42.79" fill="#bc8cff" opacity="0.8" rx="1"/>
<rect x="728" y="150" width="24" height="25.674" fill="#bc8cff" opacity="0.4" rx="1"/>
<text x="400" y="20" fill="#24292f" font-size="12" font-family="JetBrains Mono, monospace" text-anchor="middle" font-weight="bold">Rabindra Dhakal // developer fingerprint</text>
<text x="400" y="285" fill="#24292f" font-size="9" font-family="JetBrains Mono, monospace" text-anchor="middle" opacity="0.5">119 repos | 2576 stars | 8075 contributions | 32 languages</text>
</svg>