<?xml version="1.0" encoding="UTF-8"?>
<svg xmlns="http://www.w3.org/2000/svg" width="800" height="300" viewBox="0 0 800 300">
<rect x="0" y="0" width="800" height="300" fill="#0d1117" rx="12"/>
<line x1="40" y1="150" x2="760" y2="150" stroke="#c9d1d9" stroke-width="0.3" opacity="0.2"/>
<rect x="48" y="40" width="24" height="110" fill="#dea584" opacity="0.8" rx="1"/>
<rect x="48" y="150" width="24" height="66" fill="#dea584" opacity="0.4" rx="1"/>
<rect x="88" y="40" width="24" height="110" fill="#3178c6" opacity="0.8" rx="1"/>
<rect x="88" y="150" width="24" height="66" fill="#3178c6" opacity="0.4" rx="1"/>
<rect x="128" y="40" width="24" height="110" fill="#ff3e00" opacity="0.8" rx="1"/>
<rect x="128" y="150" width="24" height="66" fill="#ff3e00" opacity="0.4" rx="1"/>
<rect x="168" y="78.03076752002116" width="24" height="71.96923247997884" fill="#dea584" opacity="0.8" rx="1"/>
<rect x="168" y="150" width="24" height="43.1815394879873" fill="#dea584" opacity="0.4" rx="1"/>
<rect x="208" y="135.20963295797378" width="24" height="14.790367042026206" fill="#3178c6" opacity="0.8" rx="1"/>
<rect x="208" y="150" width="24" height="8.874220225215723" fill="#3178c6" opacity="0.4" rx="1"/>
<rect x="248" y="141.6962341284173" width="24" height="8.30376587158271" fill="#ff3e00" opacity="0.8" rx="1"/>
<rect x="248" y="150" width="24" height="4.982259522949626" fill="#ff3e00" opacity="0.4" rx="1"/>
<rect x="288" y="146.59744557600698" width="24" height="3.4025544239930348" fill="#663399" opacity="0.8" rx="1"/>
<rect x="288" y="150" width="24" height="2.0415326543958208" fill="#663399" opacity="0.4" rx="1"/>
<rect x="328" y="147.4612332443023" width="24" height="2.5387667556977043" fill="#89e051" opacity="0.8" rx="1"/>
<rect x="328" y="150" width="24" height="1.5232600534186225" fill="#89e051" opacity="0.4" rx="1"/>
<rect x="368" y="147.47877933062628" width="24" height="2.521220669373709" fill="#f1e05a" opacity="0.8" rx="1"/>
<rect x="368" y="150" width="24" height="1.5127324016242254" fill="#f1e05a" opacity="0.4" rx="1"/>
<rect x="408" y="148.76790905722027" width="24" height="1.2320909427797466" fill="#A97BFF" opacity="0.8" rx="1"/>
<rect x="408" y="150" width="24" height="0.739254565667848" fill="#A97BFF" opacity="0.4" rx="1"/>
<rect x="448" y="148.8771309940164" width="24" height="1.1228690059835935" fill="#b07219" opacity="0.8" rx="1"/>
<rect x="448" y="150" width="24" height="0.6737214035901561" fill="#b07219" opacity="0.4" rx="1"/>
<rect x="488" y="149.21062216107748" width="24" height="0.7893778389225228" fill="#6e4a7e" opacity="0.8" rx="1"/>
<rect x="488" y="150" width="24" height="0.47362670335351365" fill="#6e4a7e" opacity="0.4" rx="1"/>
<rect x="528" y="149.35323837509722" width="24" height="0.6467616249027888" fill="#e34c26" opacity="0.8" rx="1"/>
<rect x="528" y="150" width="24" height="0.38805697494167324" fill="#e34c26" opacity="0.4" rx="1"/>
<rect x="568" y="149.5817050829165" width="24" height="0.4182949170835077" fill="#178600" opacity="0.8" rx="1"/>
<rect x="568" y="150" width="24" height="0.2509769502501046" fill="#178600" opacity="0.4" rx="1"/>
<rect x="608" y="149.6575467457503" width="24" height="0.3424532542497033" fill="#9400ff" opacity="0.8" rx="1"/>
<rect x="608" y="150" width="24" height="0.20547195254982198" fill="#9400ff" opacity="0.4" rx="1"/>
<rect x="648" y="40" width="24" height="110" fill="#bc8cff" opacity="0.8" rx="1"/>
<rect x="648" y="150" width="24" height="66" fill="#bc8cff" opacity="0.4" rx="1"/>
<rect x="688" y="40" width="24" height="110" fill="#bc8cff" opacity="0.8" rx="1"/>
<rect x="688" y="150" width="24" height="66" fill="#bc8cff" opacity="0.4" rx="1"/>
<rect x="728" y="107.21000000000001" width="24" height="42.79" fill="#bc8cff" opacity="0.8" rx="1"/>
<rect x="728" y="150" width="24" height="25.674" fill="#bc8cff" opacity="0.4" rx="1"/>
<text x="400" y="20" fill="#c9d1d9" font-size="12" font-family="JetBrains Mono, monospace" text-anchor="middle" font-weight="bold">Rabindra Dhakal // developer fingerprint</text>
<text x="400" y="285" fill="#c9d1d9" font-size="9" font-family="JetBrains Mono, monospace" text-anchor="middle" opacity="0.5">118 repos | 2293 stars | 7670 contributions | 31 languages</text>
</svg>