<?xml version="1.0" encoding="UTF-8"?>
<svg xmlns="http://www.w3.org/2000/svg" width="800" height="300" viewBox="0 0 800 300">
<rect x="0" y="0" width="800" height="300" fill="#f6f8fa" rx="12"/>
<line x1="40" y1="150" x2="760" y2="150" stroke="#24292f" stroke-width="0.3" opacity="0.2"/>
<rect x="48" y="40" width="24" height="110" fill="#dea584" opacity="0.8" rx="1"/>
<rect x="48" y="150" width="24" height="66" fill="#dea584" opacity="0.4" rx="1"/>
<rect x="88" y="40" width="24" height="110" fill="#3178c6" opacity="0.8" rx="1"/>
<rect x="88" y="150" width="24" height="66" fill="#3178c6" opacity="0.4" rx="1"/>
<rect x="128" y="40" width="24" height="110" fill="#ff3e00" opacity="0.8" rx="1"/>
<rect x="128" y="150" width="24" height="66" fill="#ff3e00" opacity="0.4" rx="1"/>
<rect x="168" y="77.5537908980739" width="24" height="72.4462091019261" fill="#dea584" opacity="0.8" rx="1"/>
<rect x="168" y="150" width="24" height="43.46772546115566" fill="#dea584" opacity="0.4" rx="1"/>
<rect x="208" y="135.1775494881528" width="24" height="14.822450511847206" fill="#3178c6" opacity="0.8" rx="1"/>
<rect x="208" y="150" width="24" height="8.893470307108323" fill="#3178c6" opacity="0.4" rx="1"/>
<rect x="248" y="141.8031344251987" width="24" height="8.196865574801306" fill="#ff3e00" opacity="0.8" rx="1"/>
<rect x="248" y="150" width="24" height="4.918119344880783" fill="#ff3e00" opacity="0.4" rx="1"/>
<rect x="288" y="146.5918266397887" width="24" height="3.408173360211284" fill="#663399" opacity="0.8" rx="1"/>
<rect x="288" y="150" width="24" height="2.0449040161267704" fill="#663399" opacity="0.4" rx="1"/>
<rect x="328" y="147.46436790067898" width="24" height="2.5356320993210133" fill="#f1e05a" opacity="0.8" rx="1"/>
<rect x="328" y="150" width="24" height="1.521379259592608" fill="#f1e05a" opacity="0.4" rx="1"/>
<rect x="368" y="147.48513159253397" width="24" height="2.514868407466029" fill="#89e051" opacity="0.8" rx="1"/>
<rect x="368" y="150" width="24" height="1.5089210444796173" fill="#89e051" opacity="0.4" rx="1"/>
<rect x="408" y="148.86717973396378" width="24" height="1.1328202660362268" fill="#b07219" opacity="0.8" rx="1"/>
<rect x="408" y="150" width="24" height="0.679692159621736" fill="#b07219" opacity="0.4" rx="1"/>
<rect x="448" y="149.18433903462335" width="24" height="0.8156609653766587" fill="#A97BFF" opacity="0.8" rx="1"/>
<rect x="448" y="150" width="24" height="0.48939657922599517" fill="#A97BFF" opacity="0.4" rx="1"/>
<rect x="488" y="149.20362641703872" width="24" height="0.79637358296127" fill="#6e4a7e" opacity="0.8" rx="1"/>
<rect x="488" y="150" width="24" height="0.477824149776762" fill="#6e4a7e" opacity="0.4" rx="1"/>
<rect x="528" y="149.3507593714505" width="24" height="0.6492406285494999" fill="#e34c26" opacity="0.8" rx="1"/>
<rect x="528" y="150" width="24" height="0.38954437712969997" fill="#e34c26" opacity="0.4" rx="1"/>
<rect x="568" y="149.57799800624377" width="24" height="0.4220019937562193" fill="#178600" opacity="0.8" rx="1"/>
<rect x="568" y="150" width="24" height="0.25320119625373155" fill="#178600" opacity="0.4" rx="1"/>
<rect x="608" y="149.6545118045677" width="24" height="0.3454881954322896" fill="#9400ff" opacity="0.8" rx="1"/>
<rect x="608" y="150" width="24" height="0.20729291725937374" fill="#9400ff" opacity="0.4" rx="1"/>
<rect x="648" y="40" width="24" height="110" fill="#bc8cff" opacity="0.8" rx="1"/>
<rect x="648" y="150" width="24" height="66" fill="#bc8cff" opacity="0.4" rx="1"/>
<rect x="688" y="40" width="24" height="110" fill="#bc8cff" opacity="0.8" rx="1"/>
<rect x="688" y="150" width="24" height="66" fill="#bc8cff" opacity="0.4" rx="1"/>
<rect x="728" y="107.21000000000001" width="24" height="42.79" fill="#bc8cff" opacity="0.8" rx="1"/>
<rect x="728" y="150" width="24" height="25.674" fill="#bc8cff" opacity="0.4" rx="1"/>
<text x="400" y="20" fill="#24292f" font-size="12" font-family="JetBrains Mono, monospace" text-anchor="middle" font-weight="bold">Rabindra Dhakal // developer fingerprint</text>
<text x="400" y="285" fill="#24292f" font-size="9" font-family="JetBrains Mono, monospace" text-anchor="middle" opacity="0.5">117 repos | 2282 stars | 7424 contributions | 31 languages</text>
</svg>